<svg xmlns="http://www.w3.org/2000/svg" xmlns:xlink="http://www.w3.org/1999/xlink" width="250" zoomAndPan="magnify" viewBox="0 0 187.5 112.499997" height="150" preserveAspectRatio="xMidYMid meet" version="1.0"><defs><g/><clipPath id="c8e6a47e26"><path d="M 17 7.351562 L 60 7.351562 L 60 104.417969 L 17 104.417969 Z M 17 7.351562 " clip-rule="nonzero"/></clipPath><clipPath id="3d9c3d7280"><path d="M 62 74 L 74.972656 74 L 74.972656 80 L 62 80 Z M 62 74 " clip-rule="nonzero"/></clipPath><clipPath id="cf7ec81d01"><path d="M 1.800781 61 L 13 61 L 13 64 L 1.800781 64 Z M 1.800781 61 " clip-rule="nonzero"/></clipPath><clipPath id="ed0e3ab7b7"><path d="M 64 61 L 74.972656 61 L 74.972656 64 L 64 64 Z M 64 61 " clip-rule="nonzero"/></clipPath><clipPath id="aede7da82c"><path d="M 75.734375 50.261719 L 185.410156 50.261719 L 185.410156 72.644531 L 75.734375 72.644531 Z M 75.734375 50.261719 " clip-rule="nonzero"/></clipPath><clipPath id="9c29eb7ff8"><path d="M 0.734375 0.261719 L 110.410156 0.261719 L 110.410156 22.644531 L 0.734375 22.644531 Z M 0.734375 0.261719 " clip-rule="nonzero"/></clipPath><clipPath id="0354faf92c"><rect x="0" width="111" y="0" height="23"/></clipPath><clipPath id="48ac901281"><path d="M 75.742188 50.261719 L 185.394531 50.261719 L 185.394531 72.640625 L 75.742188 72.640625 Z M 75.742188 50.261719 " clip-rule="nonzero"/></clipPath><clipPath id="120b5e01ce"><path d="M 77.5625 52.386719 L 125.390625 52.386719 L 125.390625 70.519531 L 77.5625 70.519531 Z M 77.5625 52.386719 " clip-rule="nonzero"/></clipPath><clipPath id="4939f732ff"><path d="M 0.5625 0.386719 L 48.390625 0.386719 L 48.390625 18.519531 L 0.5625 18.519531 Z M 0.5625 0.386719 " clip-rule="nonzero"/></clipPath><clipPath id="bc9f5bb575"><rect x="0" width="49" y="0" height="19"/></clipPath><clipPath id="470f697723"><path d="M 33 6 L 40.679688 6 L 40.679688 15 L 33 15 Z M 33 6 " clip-rule="nonzero"/></clipPath><clipPath id="38b443d6dc"><rect x="0" width="41" y="0" height="18"/></clipPath><clipPath id="43a40b2a3a"><rect x="0" width="6" y="0" height="13"/></clipPath></defs><g clip-path="url(#c8e6a47e26)"><path fill="#000000" d="M 56.203125 45.515625 C 56.234375 45.625 56.257812 45.746094 56.296875 45.859375 C 56.996094 47.855469 57.496094 49.902344 57.796875 51.996094 C 58.191406 54.570312 58.625 57.144531 58.964844 59.726562 C 59.1875 61.425781 59.296875 63.140625 59.414062 64.855469 C 59.574219 67.207031 59.773438 69.5625 59.804688 71.917969 C 59.867188 75.265625 59.960938 78.628906 59.171875 81.925781 C 59.113281 82.210938 59.03125 82.488281 58.925781 82.757812 C 58.613281 83.453125 58.296875 84.144531 57.9375 84.828125 C 57.582031 85.480469 57.082031 85.988281 56.4375 86.355469 C 55.859375 86.710938 55.273438 87.066406 54.664062 87.371094 C 54.289062 87.535156 53.898438 87.660156 53.496094 87.746094 C 53.0625 87.863281 52.617188 87.945312 52.117188 88.058594 C 52.34375 88.527344 52.539062 89.003906 52.710938 89.492188 C 52.835938 89.972656 52.925781 90.460938 52.976562 90.953125 C 53.050781 91.464844 53.097656 91.980469 53.148438 92.429688 C 53.769531 92.925781 54.367188 93.382812 54.949219 93.863281 C 55.792969 94.558594 56.054688 95.546875 56.171875 96.5625 C 56.253906 97.144531 56.21875 97.71875 56.058594 98.285156 C 55.902344 98.855469 55.636719 99.363281 55.261719 99.820312 C 55.109375 100.015625 54.96875 100.21875 54.84375 100.433594 C 54.441406 101.113281 53.890625 101.625 53.179688 101.964844 C 51.648438 102.679688 50.121094 103.40625 48.453125 103.757812 C 46.457031 104.167969 44.441406 104.46875 42.414062 104.65625 C 41.140625 104.789062 39.867188 104.824219 38.589844 104.761719 C 37.800781 104.714844 37.015625 104.839844 36.246094 104.792969 C 34.847656 104.703125 33.449219 104.601562 32.066406 104.394531 C 30.035156 104.089844 27.984375 103.832031 26.066406 103.023438 C 25.382812 102.734375 24.6875 102.460938 24.019531 102.15625 C 23.183594 101.789062 22.515625 101.222656 22.019531 100.453125 C 21.84375 100.175781 21.648438 99.90625 21.457031 99.636719 C 20.625 98.484375 20.503906 97.21875 20.792969 95.859375 C 21.085938 94.496094 21.996094 93.589844 23.121094 92.871094 C 23.292969 92.757812 23.480469 92.671875 23.667969 92.566406 C 23.894531 91.066406 23.839844 89.496094 24.796875 88.085938 C 24.28125 87.960938 23.851562 87.835938 23.417969 87.761719 C 22.882812 87.683594 22.382812 87.507812 21.914062 87.234375 C 21.457031 86.957031 20.988281 86.695312 20.535156 86.417969 C 19.632812 85.917969 19 85.183594 18.636719 84.210938 C 18.621094 84.152344 18.597656 84.09375 18.566406 84.039062 C 17.507812 82.21875 17.3125 80.167969 17.175781 78.125 C 16.96875 75.023438 16.996094 71.921875 17.253906 68.820312 C 17.421875 66.824219 17.449219 64.8125 17.628906 62.8125 C 17.824219 60.714844 18.09375 58.621094 18.386719 56.53125 C 18.683594 54.445312 19 52.398438 19.40625 50.347656 C 19.695312 48.894531 20.152344 47.472656 20.539062 46.035156 C 20.585938 45.859375 20.65625 45.6875 20.722656 45.480469 C 20.011719 45.230469 19.523438 44.75 19.257812 44.042969 C 19.058594 43.53125 18.984375 43.003906 19.042969 42.457031 C 19.101562 41.910156 19.285156 41.410156 19.585938 40.953125 C 19.742188 40.707031 19.933594 40.496094 20.164062 40.316406 C 20.4375 40.140625 20.539062 39.894531 20.472656 39.574219 C 20.332031 38.550781 20.210938 37.523438 20.078125 36.496094 C 19.996094 35.816406 19.921875 35.136719 19.84375 34.460938 C 19.675781 32.960938 19.433594 31.464844 19.351562 29.960938 C 19.222656 27.527344 19.03125 25.089844 19.257812 22.636719 C 19.464844 20.410156 20.210938 18.414062 21.75 16.757812 C 21.976562 16.515625 22.160156 16.234375 22.398438 16.003906 C 22.78125 15.632812 23.144531 15.210938 23.59375 14.941406 C 24.539062 14.351562 25.535156 13.859375 26.574219 13.460938 C 28.175781 12.867188 29.75 12.207031 31.328125 11.554688 C 31.984375 11.285156 32.570312 10.902344 33.082031 10.414062 C 33.550781 9.976562 34.050781 9.578125 34.507812 9.128906 C 35.285156 8.367188 36.191406 7.804688 37.21875 7.445312 C 38 7.152344 38.789062 7.144531 39.582031 7.417969 C 40.59375 7.753906 41.488281 8.289062 42.265625 9.027344 C 42.769531 9.515625 43.316406 9.960938 43.824219 10.441406 C 44.34375 10.925781 44.929688 11.304688 45.582031 11.574219 C 47.160156 12.226562 48.765625 12.820312 50.335938 13.492188 C 51.351562 13.929688 52.328125 14.457031 53.324219 14.953125 C 53.417969 15 53.5 15.058594 53.578125 15.128906 C 55.496094 16.898438 57.054688 18.890625 57.472656 21.570312 C 57.679688 22.984375 57.757812 24.410156 57.710938 25.839844 C 57.683594 26.914062 57.648438 27.992188 57.582031 29.066406 C 57.527344 29.910156 57.417969 30.75 57.332031 31.59375 C 57.203125 32.828125 57.085938 34.0625 56.9375 35.292969 C 56.804688 36.464844 56.636719 37.632812 56.484375 38.800781 C 56.46875 38.925781 56.464844 39.050781 56.445312 39.171875 C 56.390625 39.425781 56.410156 39.671875 56.496094 39.914062 C 56.582031 40.15625 56.726562 40.355469 56.925781 40.515625 C 57.910156 41.386719 58.121094 43.078125 57.535156 44.253906 C 57.3125 44.734375 57.050781 44.984375 56.203125 45.515625 Z M 32.695312 36.089844 C 32.222656 36.050781 31.726562 36.039062 31.242188 35.960938 C 30.917969 35.914062 30.613281 35.8125 30.324219 35.648438 C 29.890625 35.386719 29.804688 35.027344 30.035156 34.585938 C 30.167969 34.300781 30.351562 34.054688 30.585938 33.851562 C 31.753906 32.933594 33.03125 32.246094 34.550781 32.140625 C 34.765625 32.125 34.980469 32.085938 35.203125 32.054688 C 35.175781 31.460938 35.136719 30.945312 35.128906 30.429688 C 35.109375 29.101562 35.328125 27.828125 36.054688 26.691406 C 36.53125 25.949219 37.175781 25.488281 38.105469 25.546875 C 38.289062 25.558594 38.476562 25.558594 38.660156 25.546875 C 39.742188 25.457031 40.46875 25.996094 40.972656 26.890625 C 41.5 27.851562 41.761719 28.882812 41.761719 29.980469 C 41.773438 30.660156 41.761719 31.335938 41.761719 32.054688 C 41.863281 32.085938 41.96875 32.109375 42.074219 32.121094 C 43.621094 32.179688 44.949219 32.800781 46.144531 33.730469 C 46.445312 33.980469 46.6875 34.28125 46.871094 34.628906 C 46.984375 34.796875 47.015625 34.976562 46.964844 35.171875 C 46.914062 35.367188 46.800781 35.511719 46.625 35.605469 C 46.324219 35.785156 46.003906 35.902344 45.660156 35.957031 C 45.164062 36.046875 44.652344 36.058594 44.117188 36.105469 C 44.375 36.761719 44.628906 37.378906 44.257812 38.121094 C 43.753906 38.097656 43.253906 38.042969 42.757812 37.957031 C 41.304688 37.617188 39.835938 37.5 38.351562 37.609375 C 37.636719 37.664062 36.925781 37.808594 36.214844 37.925781 C 36.019531 37.960938 35.789062 38 35.867188 38.308594 C 35.925781 38.339844 35.984375 38.355469 36.046875 38.367188 C 36.191406 38.367188 36.335938 38.351562 36.476562 38.339844 C 38.101562 38.191406 39.722656 38.21875 41.339844 38.417969 C 42.40625 38.5625 43.496094 38.792969 44.589844 38.550781 C 44.714844 38.53125 44.832031 38.546875 44.949219 38.597656 C 45.539062 38.84375 46.128906 39.089844 46.699219 39.363281 C 46.890625 39.449219 47.042969 39.582031 47.15625 39.761719 C 47.414062 40.261719 47.839844 40.320312 48.335938 40.34375 C 49.914062 40.417969 51.433594 40.765625 52.820312 41.570312 C 52.90625 41.613281 53 41.648438 53.09375 41.671875 C 53.421875 41.1875 53.683594 40.71875 54.027344 40.3125 C 54.402344 39.855469 54.980469 39.792969 55.613281 39.738281 C 55.613281 39.210938 55.574219 38.71875 55.613281 38.230469 C 55.839844 35.65625 56.109375 33.082031 56.328125 30.511719 C 56.429688 29.324219 56.417969 28.109375 56.523438 26.917969 C 56.640625 25.40625 56.617188 23.898438 56.460938 22.390625 C 56.332031 21.050781 55.960938 19.789062 55.175781 18.683594 C 54.722656 18.046875 54.191406 17.460938 53.703125 16.855469 C 53.222656 16.296875 52.652344 15.871094 51.988281 15.566406 C 50.449219 14.800781 48.796875 14.347656 47.199219 13.746094 C 45.480469 13.101562 43.789062 12.40625 42.441406 11.078125 C 41.890625 10.519531 41.304688 10 40.679688 9.523438 C 39.5 8.648438 38.21875 8.371094 36.875 9.136719 C 36.359375 9.4375 35.878906 9.785156 35.4375 10.1875 C 34.296875 11.199219 33.230469 12.316406 31.769531 12.886719 C 30.238281 13.480469 28.691406 14.039062 27.160156 14.644531 C 26.222656 15.011719 25.304688 15.425781 24.386719 15.847656 C 24.105469 15.980469 23.855469 16.160156 23.640625 16.390625 C 22.898438 17.179688 22.140625 17.972656 21.5625 18.917969 C 21.097656 19.664062 20.78125 20.464844 20.609375 21.328125 C 20.324219 22.816406 20.222656 24.316406 20.308594 25.832031 C 20.421875 27.917969 20.46875 30.003906 20.742188 32.082031 C 20.996094 34.027344 21.089844 35.996094 21.25 37.957031 C 21.300781 38.550781 21.34375 39.144531 21.390625 39.785156 C 22.769531 39.691406 23.285156 40.675781 23.753906 41.722656 C 23.925781 41.640625 24.058594 41.589844 24.179688 41.523438 C 25.007812 41.039062 25.894531 40.722656 26.839844 40.574219 C 27.550781 40.460938 28.269531 40.390625 28.984375 40.320312 C 29.21875 40.296875 29.417969 40.261719 29.546875 40.023438 C 29.820312 39.523438 30.289062 39.265625 30.792969 39.058594 L 32.035156 38.550781 C 32.269531 37.679688 32.476562 36.910156 32.695312 36.089844 Z M 34.609375 51.234375 L 34.609375 51.097656 L 34.257812 51.0625 C 33.503906 50.996094 32.738281 50.972656 31.992188 50.855469 C 30.96875 50.691406 29.914062 50.65625 28.9375 50.222656 C 28.464844 50.027344 27.964844 49.886719 27.503906 49.667969 C 26.675781 49.269531 26.449219 48.5 26.933594 47.707031 C 27.101562 47.445312 27.3125 47.226562 27.566406 47.046875 C 28.042969 46.695312 28.550781 46.390625 28.980469 46.105469 L 28.78125 42.84375 C 28.765625 42.84375 28.746094 42.820312 28.730469 42.820312 C 27.34375 43.039062 26.011719 43.445312 24.734375 44.039062 C 24.117188 44.316406 23.699219 44.78125 23.484375 45.425781 C 23.304688 45.953125 23.117188 46.476562 22.96875 47.007812 C 22.226562 49.648438 21.941406 52.363281 21.734375 55.089844 C 21.621094 56.59375 21.539062 58.101562 21.371094 59.601562 C 21.175781 61.367188 20.917969 63.128906 20.714844 64.894531 C 20.597656 65.898438 20.515625 66.910156 20.460938 67.921875 C 20.351562 69.550781 20.191406 71.183594 20.191406 72.8125 C 20.191406 75.027344 20.285156 77.238281 20.40625 79.449219 C 20.484375 80.914062 20.867188 82.300781 21.832031 83.46875 C 22.402344 84.15625 23.015625 84.8125 23.859375 85.144531 C 24.5625 85.425781 25.316406 85.570312 26.039062 85.800781 C 26.316406 85.898438 26.558594 85.84375 26.761719 85.632812 C 27.753906 84.785156 28.820312 84.046875 29.960938 83.421875 C 30.070312 83.355469 30.171875 83.28125 30.269531 83.203125 C 30.191406 82.292969 30.359375 81.429688 30.773438 80.617188 C 29.976562 79.992188 29.21875 79.429688 28.488281 78.820312 C 28.246094 78.632812 28.070312 78.394531 27.96875 78.101562 C 27.867188 77.808594 27.851562 77.515625 27.921875 77.210938 C 27.976562 76.957031 28.066406 76.707031 28.132812 76.488281 C 27.773438 75.757812 27.34375 75.066406 27.082031 74.3125 C 26.476562 72.5625 26.132812 70.761719 26.050781 68.910156 C 25.964844 66.902344 26.011719 64.894531 26.386719 62.914062 C 26.542969 62.292969 26.414062 61.738281 25.996094 61.257812 C 25.804688 61.011719 25.667969 60.742188 25.582031 60.445312 C 25.5 60.148438 25.472656 59.847656 25.503906 59.539062 C 25.535156 59.230469 25.621094 58.941406 25.765625 58.667969 C 25.910156 58.394531 26.097656 58.160156 26.332031 57.960938 C 26.832031 57.539062 27.398438 57.203125 27.957031 56.808594 C 27.804688 56.046875 27.957031 55.339844 28.628906 54.796875 C 28.71875 54.707031 28.765625 54.601562 28.769531 54.476562 C 28.785156 53.566406 29.359375 53.066406 30.074219 52.664062 C 30.214844 52.585938 30.347656 52.507812 30.46875 52.441406 C 30.550781 51.941406 30.402344 51.453125 30.703125 51.015625 C 31.988281 51.410156 33.289062 51.484375 34.609375 51.234375 Z M 46.453125 52.484375 C 46.601562 52.558594 46.730469 52.625 46.847656 52.695312 C 47.542969 53.089844 48.085938 53.578125 48.117188 54.460938 C 48.15625 54.644531 48.246094 54.792969 48.386719 54.910156 C 48.84375 55.335938 49.039062 55.859375 48.96875 56.480469 C 48.957031 56.621094 48.933594 56.761719 48.929688 56.8125 C 49.519531 57.230469 50.070312 57.59375 50.589844 58 C 51.019531 58.339844 51.269531 58.777344 51.339844 59.320312 C 51.507812 60.105469 51.328125 60.804688 50.808594 61.414062 C 50.476562 61.765625 50.363281 62.179688 50.472656 62.65625 C 50.75 64.207031 50.886719 65.769531 50.882812 67.347656 C 50.859375 70.570312 50.453125 73.695312 48.714844 76.519531 C 49.292969 77.667969 48.976562 78.320312 48.339844 78.894531 C 48.082031 79.132812 47.800781 79.34375 47.523438 79.554688 C 47.050781 79.910156 46.570312 80.253906 46.082031 80.609375 C 46.511719 81.441406 46.703125 82.328125 46.65625 83.265625 C 46.820312 83.363281 46.964844 83.445312 47.101562 83.539062 C 48.035156 84.175781 49 84.777344 49.890625 85.472656 C 50.3125 85.800781 50.675781 85.925781 51.167969 85.753906 C 51.957031 85.476562 52.8125 85.375 53.53125 84.886719 C 55.066406 83.832031 56.070312 82.40625 56.328125 80.539062 C 56.5 79.25 56.589844 77.949219 56.660156 76.648438 C 56.882812 72.503906 56.53125 68.378906 56.125 64.261719 C 55.957031 62.597656 55.632812 60.945312 55.46875 59.28125 C 55.21875 56.789062 55.074219 54.289062 54.832031 51.800781 C 54.621094 49.648438 54.160156 47.554688 53.441406 45.515625 C 53.191406 44.761719 52.699219 44.238281 51.957031 43.949219 C 51.273438 43.667969 50.578125 43.421875 49.867188 43.203125 C 49.289062 43.03125 48.683594 42.921875 48.105469 42.785156 C 48.035156 43.953125 47.96875 45.039062 47.898438 46.125 C 48.292969 46.367188 48.699219 46.605469 49.082031 46.875 C 49.359375 47.054688 49.609375 47.269531 49.828125 47.519531 C 50.460938 48.296875 50.265625 49.253906 49.375 49.683594 C 48.886719 49.898438 48.386719 50.085938 47.878906 50.25 C 47.359375 50.4375 46.839844 50.613281 46.304688 50.800781 C 46.351562 51.367188 46.398438 51.898438 46.453125 52.484375 Z M 46.21875 77.46875 C 46.175781 77.574219 46.117188 77.667969 46.046875 77.75 C 45.460938 78.289062 44.785156 78.675781 44.023438 78.90625 C 43.449219 79.070312 42.871094 79.199219 42.28125 79.304688 C 40.28125 79.648438 38.273438 79.714844 36.253906 79.5 C 35.15625 79.378906 34.066406 79.144531 32.980469 78.917969 C 32.191406 78.753906 31.542969 78.308594 30.9375 77.804688 C 30.835938 77.6875 30.753906 77.558594 30.695312 77.417969 C 31.117188 77.195312 31.410156 77.382812 31.699219 77.523438 C 33.023438 78.152344 34.457031 78.25 35.890625 78.539062 C 35.964844 78.355469 36.03125 78.167969 36.085938 77.976562 C 36.453125 76.414062 37.132812 74.976562 37.792969 73.53125 C 37.8125 73.5 37.835938 73.46875 37.855469 73.4375 C 37.976562 73.257812 37.964844 73.085938 37.820312 72.921875 C 37.367188 72.28125 36.96875 71.597656 36.46875 70.996094 C 34.863281 69.070312 32.964844 67.449219 31.007812 65.894531 C 29.890625 65.015625 28.777344 64.136719 27.660156 63.261719 C 27.535156 63.167969 27.402344 63.082031 27.242188 62.96875 C 27.210938 63.105469 27.1875 63.179688 27.175781 63.257812 C 26.722656 65.910156 26.691406 68.566406 27.082031 71.226562 C 27.3125 72.6875 27.683594 74.097656 28.445312 75.382812 C 28.710938 75.832031 28.894531 76.375 29.550781 76.433594 C 29.664062 76.445312 29.835938 76.695312 29.839844 76.832031 C 29.839844 77.085938 29.59375 77.128906 29.378906 77.128906 C 29.164062 77.132812 28.984375 77.113281 28.8125 77.105469 C 28.710938 77.269531 28.675781 77.449219 28.710938 77.640625 C 28.746094 77.835938 28.84375 77.988281 28.996094 78.109375 C 29.230469 78.34375 29.480469 78.554688 29.75 78.746094 C 30.445312 79.222656 31.167969 79.660156 31.917969 80.050781 C 32.875 80.515625 33.808594 81.066406 34.890625 81.222656 C 35.4375 81.300781 35.992188 81.34375 36.535156 81.460938 C 38.394531 81.871094 40.21875 81.53125 42.046875 81.214844 C 42.496094 81.140625 42.929688 81.015625 43.347656 80.835938 C 44.25 80.441406 45.132812 79.996094 45.992188 79.511719 C 46.640625 79.109375 47.257812 78.667969 47.847656 78.183594 C 48.023438 78.070312 48.140625 77.910156 48.191406 77.703125 C 48.242188 77.5 48.21875 77.304688 48.113281 77.117188 C 47.875 77.132812 47.636719 77.128906 47.398438 77.105469 C 47.253906 77.074219 47.15625 76.992188 47.097656 76.859375 C 47.09375 76.714844 47.144531 76.59375 47.246094 76.496094 C 47.335938 76.402344 47.445312 76.351562 47.574219 76.347656 C 47.890625 76.332031 48.039062 76.121094 48.183594 75.882812 C 48.828125 74.863281 49.289062 73.765625 49.574219 72.589844 C 50.230469 69.792969 50.191406 66.96875 49.890625 64.136719 C 49.847656 63.753906 49.757812 63.378906 49.675781 62.933594 C 48.996094 63.5 48.402344 64.035156 47.761719 64.519531 C 45.96875 65.871094 44.175781 67.222656 42.542969 68.773438 C 41.164062 70.089844 39.914062 71.511719 38.957031 73.191406 C 39.339844 74.050781 39.761719 74.90625 40.101562 75.792969 C 40.441406 76.679688 40.707031 77.617188 41.011719 78.5625 C 42.519531 78.25 44.011719 78.15625 45.363281 77.46875 C 45.597656 77.339844 45.871094 77.199219 46.21875 77.46875 Z M 48.050781 57.488281 C 47.246094 58.183594 46.332031 58.414062 45.394531 58.578125 C 44.851562 58.679688 44.3125 58.804688 43.765625 58.875 C 42.503906 59.042969 41.238281 59.226562 39.96875 59.324219 C 38.199219 59.433594 36.433594 59.375 34.671875 59.144531 C 33.59375 59.015625 32.535156 58.761719 31.460938 58.574219 C 30.523438 58.410156 29.628906 58.140625 28.84375 57.503906 C 28.296875 58.761719 27.804688 59.957031 27.523438 61.234375 C 27.472656 61.382812 27.46875 61.535156 27.511719 61.683594 C 27.554688 61.835938 27.640625 61.960938 27.761719 62.058594 C 28.414062 62.625 29.050781 63.214844 29.71875 63.761719 C 31.332031 65.082031 32.964844 66.371094 34.570312 67.699219 C 36.003906 68.875 37.191406 70.265625 38.128906 71.871094 C 38.21875 72.027344 38.324219 72.167969 38.449219 72.339844 C 38.515625 72.269531 38.578125 72.191406 38.632812 72.109375 C 39.992188 69.617188 42.078125 67.8125 44.25 66.085938 C 45.433594 65.144531 46.613281 64.226562 47.785156 63.273438 C 48.28125 62.878906 48.730469 62.414062 49.207031 61.988281 C 49.421875 61.808594 49.484375 61.585938 49.402344 61.320312 C 49.121094 60.019531 48.628906 58.800781 48.050781 57.488281 Z M 46.167969 41.808594 C 45.9375 41.9375 45.992188 42.113281 46.027344 42.300781 C 46.101562 42.558594 46.140625 42.824219 46.152344 43.09375 C 46.136719 43.710938 46.066406 44.328125 46.039062 44.945312 C 46.046875 45.316406 45.882812 45.582031 45.546875 45.738281 C 45.328125 45.847656 45.097656 45.941406 44.863281 46.011719 C 44.074219 46.238281 43.289062 46.207031 42.476562 46.117188 C 41.332031 45.992188 40.175781 45.890625 39.042969 46.171875 C 37.976562 46.433594 36.917969 46.339844 35.859375 46.222656 C 34.984375 46.125 34.125 45.929688 33.230469 46.054688 C 32.773438 46.121094 32.292969 46.035156 31.820312 46.019531 C 31.765625 45.890625 31.730469 45.757812 31.710938 45.621094 C 31.734375 44.816406 31.761719 44.015625 31.808594 43.210938 C 31.824219 42.996094 31.859375 42.816406 31.5625 42.699219 C 31.511719 42.859375 31.417969 42.996094 31.433594 43.121094 C 31.519531 43.8125 31.347656 44.472656 31.21875 45.136719 C 31.066406 45.886719 31.0625 45.886719 30.320312 45.957031 C 30.238281 45.953125 30.15625 45.964844 30.078125 45.992188 C 29.964844 46.058594 29.800781 46.132812 29.769531 46.238281 C 29.710938 46.433594 29.878906 46.511719 30.054688 46.554688 C 30.328125 46.628906 30.59375 46.710938 30.808594 46.777344 C 31.203125 47.859375 30.761719 48.980469 31.25 50.023438 C 31.570312 49.851562 31.570312 49.566406 31.59375 49.316406 C 31.628906 48.949219 31.605469 48.574219 31.628906 48.203125 C 31.65625 47.761719 31.707031 47.316406 31.753906 46.785156 C 33.082031 46.890625 34.335938 46.917969 35.570312 47.105469 C 36.765625 47.289062 37.933594 47.515625 39.167969 47.46875 C 41.410156 47.375 43.65625 47.449219 45.835938 46.796875 C 46.070312 46.726562 46.316406 46.679688 46.542969 46.601562 C 46.726562 46.539062 46.871094 46.429688 46.972656 46.265625 C 47.078125 46.101562 47.121094 45.921875 47.097656 45.730469 C 47.078125 45.378906 47.097656 45.027344 47.0625 44.675781 C 46.984375 43.9375 46.945312 43.1875 46.640625 42.5 C 46.523438 42.238281 46.472656 41.933594 46.167969 41.808594 Z M 35.960938 31.941406 L 40.949219 31.941406 C 41.074219 30.585938 41.078125 29.25 40.601562 27.960938 C 40.152344 26.75 39.53125 26.523438 38.683594 26.535156 C 38.539062 26.535156 38.394531 26.535156 38.25 26.535156 C 37.15625 26.570312 36.675781 26.929688 36.292969 27.992188 C 35.832031 29.269531 35.855469 30.585938 35.960938 31.941406 Z M 21.761719 85.710938 L 21.867188 85.539062 C 21.546875 85.257812 21.226562 84.976562 20.90625 84.703125 C 20.183594 84.121094 19.742188 83.375 19.574219 82.464844 C 19.433594 81.671875 19.195312 80.898438 19.046875 80.109375 C 18.855469 79.242188 18.726562 78.367188 18.652344 77.480469 C 18.574219 75.871094 18.566406 74.257812 18.574219 72.644531 C 18.574219 71.550781 18.59375 70.453125 18.699219 69.363281 C 18.824219 68.113281 19.050781 66.871094 19.222656 65.621094 C 19.25 65.4375 19.25 65.253906 19.222656 65.070312 C 19.191406 64.992188 19.132812 64.945312 19.054688 64.929688 C 18.96875 64.929688 18.90625 64.964844 18.855469 65.03125 C 18.800781 65.144531 18.765625 65.261719 18.746094 65.382812 C 18.648438 65.976562 18.550781 66.570312 18.460938 67.164062 C 18.304688 68.308594 18.085938 69.453125 18.023438 70.601562 C 17.929688 72.292969 17.929688 73.988281 17.9375 75.683594 C 17.945312 76.554688 18 77.417969 18.109375 78.28125 C 18.289062 79.84375 18.730469 81.355469 19.195312 82.851562 C 19.550781 83.988281 20.234375 84.863281 21.25 85.476562 C 21.414062 85.566406 21.585938 85.644531 21.761719 85.710938 Z M 32.078125 98.71875 C 32.273438 99.113281 32.59375 99.136719 32.851562 99.167969 C 33.953125 99.308594 35.050781 99.476562 36.160156 99.523438 C 38.523438 99.609375 40.886719 99.59375 43.230469 99.1875 C 44.933594 98.894531 46.640625 98.636719 48.332031 98.308594 C 48.871094 98.207031 49.378906 97.949219 49.890625 97.738281 C 50.011719 97.6875 50.085938 97.542969 50.191406 97.4375 L 50.121094 97.320312 C 49.964844 97.316406 49.8125 97.328125 49.65625 97.355469 C 47.636719 97.949219 45.558594 98.230469 43.484375 98.53125 C 41.34375 98.847656 39.191406 98.96875 37.027344 98.890625 C 35.632812 98.839844 34.234375 98.75 32.839844 98.683594 C 32.609375 98.667969 32.375 98.699219 32.078125 98.710938 Z M 27.71875 91.503906 L 27.636719 91.726562 C 27.804688 91.847656 27.980469 91.960938 28.164062 92.0625 C 28.808594 92.382812 29.46875 92.671875 30.109375 93.003906 C 31.109375 93.527344 32.171875 93.816406 33.300781 93.871094 C 35.128906 93.96875 36.957031 94.050781 38.785156 94.148438 C 39.949219 94.183594 41.085938 94.023438 42.195312 93.675781 C 42.390625 93.621094 42.667969 93.601562 42.613281 93.207031 C 42.363281 93.230469 42.125 93.25 41.882812 93.277344 C 40.617188 93.457031 39.34375 93.511719 38.066406 93.4375 C 36.570312 93.320312 35.070312 93.21875 33.570312 93.140625 C 32.425781 93.085938 31.335938 92.820312 30.296875 92.339844 C 29.679688 92.050781 29.042969 91.8125 28.40625 91.582031 C 28.179688 91.527344 27.953125 91.5 27.71875 91.5 Z M 36.675781 78.640625 C 37.875 78.933594 39.074219 78.933594 40.273438 78.640625 C 39.972656 77.003906 39.199219 75.621094 38.460938 74.101562 C 37.726562 75.617188 36.902344 77 36.675781 78.640625 Z M 33.269531 35.84375 C 33.402344 35.851562 33.535156 35.84375 33.664062 35.820312 C 33.898438 35.746094 34.121094 35.636719 34.347656 35.546875 C 36.136719 34.835938 37.96875 34.472656 39.890625 34.808594 C 40.699219 34.949219 41.5 35.113281 42.304688 35.277344 C 42.46875 35.3125 42.628906 35.386719 42.734375 35.097656 C 42.597656 34.992188 42.457031 34.898438 42.304688 34.816406 C 41.929688 34.648438 41.550781 34.5 41.160156 34.371094 C 38.914062 33.652344 36.699219 33.871094 34.523438 34.671875 C 34.144531 34.835938 33.792969 35.035156 33.460938 35.277344 C 33.347656 35.324219 33.273438 35.402344 33.234375 35.515625 C 33.199219 35.628906 33.210938 35.738281 33.269531 35.84375 Z M 40.328125 56.203125 C 40.203125 56.179688 40.082031 56.167969 39.957031 56.164062 C 36.71875 56.328125 33.546875 55.957031 30.4375 55.046875 C 30.1875 54.996094 29.933594 54.96875 29.679688 54.964844 L 29.617188 55.09375 C 29.691406 55.195312 29.746094 55.34375 29.84375 55.390625 C 30.328125 55.617188 30.824219 55.816406 31.332031 55.984375 C 32.863281 56.410156 34.421875 56.679688 36.003906 56.789062 C 37.289062 56.925781 38.554688 56.84375 39.808594 56.539062 C 39.984375 56.484375 40.21875 56.5 40.328125 56.203125 Z M 55.332031 46.582031 C 54.9375 46.839844 55 47.105469 55.027344 47.34375 C 55.128906 48.226562 55.257812 49.105469 55.359375 49.988281 C 55.609375 52.144531 56.105469 54.261719 56.566406 56.378906 C 56.578125 56.628906 56.675781 56.832031 56.863281 56.988281 C 56.855469 56.792969 56.863281 56.660156 56.84375 56.539062 C 56.613281 54.488281 56.398438 52.433594 56.140625 50.382812 C 56.007812 49.335938 55.804688 48.300781 55.609375 47.265625 C 55.539062 47.027344 55.449219 46.800781 55.332031 46.582031 Z M 26.753906 60.769531 C 26.871094 60.398438 26.960938 60.082031 27.066406 59.769531 C 27.175781 59.457031 27.292969 59.152344 27.414062 58.84375 C 27.523438 58.566406 27.714844 58.316406 27.785156 57.921875 C 26.277344 58.964844 25.949219 59.867188 26.753906 60.769531 Z M 49.082031 57.917969 C 49.335938 58.496094 49.539062 58.9375 49.714844 59.390625 C 49.886719 59.84375 50.015625 60.285156 50.1875 60.789062 C 50.914062 59.765625 50.570312 58.875 49.082031 57.917969 Z M 55.257812 43.328125 C 55.742188 43.132812 55.835938 42.734375 55.847656 42.3125 C 55.847656 42.117188 55.847656 41.886719 55.597656 41.808594 C 55.46875 41.765625 55.339844 41.773438 55.214844 41.828125 C 55.085938 41.886719 54.996094 41.976562 54.941406 42.105469 C 54.648438 42.8125 54.597656 42.710938 55.25 43.328125 Z M 22.203125 42.753906 C 21.878906 41.746094 21.859375 41.726562 21.175781 41.875 C 20.945312 42.605469 21.082031 43.007812 21.710938 43.316406 Z M 31.519531 41.222656 C 31.269531 41.597656 31.261719 41.933594 31.503906 42.015625 C 31.640625 42.046875 31.757812 42.015625 31.863281 41.921875 C 32.0625 41.699219 31.957031 41.492188 31.519531 41.226562 Z M 43.71875 93.15625 C 43.914062 93.265625 44.117188 93.359375 44.324219 93.433594 C 44.523438 93.476562 44.738281 93.277344 44.671875 93.125 C 44.59375 92.984375 44.480469 92.90625 44.324219 92.886719 C 44.160156 92.890625 44.011719 93.019531 43.71875 93.15625 Z M 41.433594 55.855469 C 41.277344 55.992188 41.074219 56.082031 41.050781 56.207031 C 41.003906 56.449219 41.222656 56.488281 41.417969 56.488281 C 41.664062 56.488281 41.90625 56.289062 41.832031 56.15625 C 41.761719 56.023438 41.597656 55.980469 41.433594 55.855469 Z M 57.804688 62.113281 C 57.632812 61.957031 57.542969 61.804688 57.421875 61.78125 C 57.210938 61.734375 57.136719 61.925781 57.183594 62.089844 C 57.246094 62.222656 57.328125 62.34375 57.433594 62.449219 Z M 57.046875 58.570312 C 56.917969 59.0625 56.917969 59.0625 57.121094 59.386719 C 57.410156 59.0625 57.410156 59.050781 57.046875 58.570312 Z M 35.003906 51.328125 C 35.265625 51.285156 35.398438 51.269531 35.535156 51.238281 C 35.550781 51.238281 35.566406 51.097656 35.535156 51.078125 C 35.367188 50.941406 35.214844 50.96875 35.003906 51.328125 Z M 35.003906 51.328125 " fill-opacity="1" fill-rule="nonzero"/></g><path fill="#000000" d="M 3.460938 79.308594 C 3.148438 79.308594 2.9375 79.199219 2.855469 78.925781 C 2.816406 78.808594 2.820312 78.695312 2.863281 78.585938 C 2.90625 78.472656 2.984375 78.386719 3.089844 78.332031 C 3.214844 78.257812 3.34375 78.199219 3.484375 78.15625 C 6.503906 77.152344 9.527344 76.152344 12.558594 75.152344 C 12.886719 75.046875 13.230469 74.957031 13.570312 74.890625 C 13.683594 74.847656 13.792969 74.851562 13.902344 74.902344 C 14.015625 74.949219 14.089844 75.03125 14.136719 75.144531 C 14.234375 75.414062 14.054688 75.578125 13.847656 75.6875 C 13.574219 75.828125 13.292969 75.953125 13 76.058594 C 9.929688 77.113281 6.855469 78.164062 3.777344 79.207031 C 3.664062 79.253906 3.542969 79.285156 3.460938 79.308594 Z M 3.460938 79.308594 " fill-opacity="1" fill-rule="nonzero"/><g clip-path="url(#3d9c3d7280)"><path fill="#000000" d="M 63.167969 74.851562 C 63.496094 74.933594 63.738281 74.980469 63.972656 75.050781 C 66.707031 75.945312 69.441406 76.839844 72.171875 77.738281 C 72.582031 77.871094 72.992188 78.007812 73.402344 78.152344 C 73.539062 78.191406 73.667969 78.25 73.792969 78.320312 C 73.910156 78.378906 73.992188 78.46875 74.039062 78.589844 C 74.085938 78.714844 74.082031 78.835938 74.03125 78.957031 C 73.988281 79.078125 73.910156 79.171875 73.800781 79.238281 C 73.6875 79.300781 73.566406 79.320312 73.441406 79.292969 C 73.320312 79.273438 73.199219 79.242188 73.085938 79.195312 C 70.050781 78.160156 67.019531 77.121094 63.984375 76.085938 C 63.65625 75.964844 63.335938 75.828125 63.023438 75.671875 C 62.828125 75.574219 62.671875 75.382812 62.777344 75.167969 C 62.855469 75.019531 63.066406 74.9375 63.167969 74.851562 Z M 63.167969 74.851562 " fill-opacity="1" fill-rule="nonzero"/></g><g clip-path="url(#cf7ec81d01)"><path fill="#000000" d="M 11.882812 63.40625 C 10.804688 63.265625 9.71875 63.132812 8.644531 62.988281 C 6.382812 62.683594 4.128906 62.355469 1.863281 62.085938 C 1.363281 62.027344 1.109375 61.761719 1.148438 61.492188 C 1.199219 61.15625 1.511719 61.011719 2.03125 61.097656 C 3.894531 61.40625 5.773438 61.644531 7.640625 61.917969 C 9.019531 62.113281 10.398438 62.324219 11.785156 62.53125 C 11.847656 62.53125 11.910156 62.542969 11.96875 62.554688 C 12.363281 62.640625 12.523438 62.792969 12.503906 63.042969 C 12.480469 63.289062 12.277344 63.414062 11.882812 63.40625 Z M 11.882812 63.40625 " fill-opacity="1" fill-rule="nonzero"/></g><g clip-path="url(#ed0e3ab7b7)"><path fill="#000000" d="M 64.949219 63.414062 C 64.867188 63.402344 64.765625 63.421875 64.707031 63.378906 C 64.589844 63.285156 64.421875 63.167969 64.410156 63.046875 C 64.417969 62.878906 64.496094 62.753906 64.640625 62.671875 C 64.996094 62.5625 65.355469 62.488281 65.722656 62.441406 C 68.8125 61.984375 71.902344 61.535156 74.992188 61.089844 C 75.074219 61.078125 75.15625 61.070312 75.238281 61.066406 C 75.367188 61.058594 75.480469 61.097656 75.578125 61.183594 C 75.675781 61.265625 75.734375 61.375 75.75 61.503906 C 75.765625 61.632812 75.730469 61.75 75.652344 61.851562 C 75.570312 61.957031 75.46875 62.015625 75.339844 62.035156 C 75.035156 62.09375 74.726562 62.113281 74.421875 62.15625 L 67.273438 63.113281 C 66.5 63.21875 65.726562 63.316406 64.949219 63.414062 Z M 64.949219 63.414062 " fill-opacity="1" fill-rule="nonzero"/></g><path fill="#000000" d="M 15.953125 49.457031 C 15.953125 49.71875 15.824219 49.835938 15.640625 49.785156 C 15.441406 49.734375 15.261719 49.644531 15.09375 49.523438 C 14.273438 48.925781 13.453125 48.351562 12.652344 47.738281 C 10.851562 46.367188 9.054688 44.988281 7.265625 43.597656 C 6.902344 43.316406 6.820312 43.105469 6.976562 42.894531 C 7.132812 42.683594 7.371094 42.683594 7.730469 42.953125 C 10.246094 44.878906 12.761719 46.808594 15.273438 48.742188 C 15.453125 48.878906 15.625 49.03125 15.785156 49.191406 C 15.851562 49.273438 15.90625 49.363281 15.953125 49.457031 Z M 15.953125 49.457031 " fill-opacity="1" fill-rule="nonzero"/><path fill="#000000" d="M 61.308594 49.808594 C 60.976562 49.789062 60.851562 49.566406 60.992188 49.355469 C 61.097656 49.207031 61.226562 49.074219 61.375 48.960938 C 62.09375 48.378906 62.8125 47.792969 63.539062 47.226562 C 65.40625 45.800781 67.277344 44.382812 69.152344 42.96875 L 69.25 42.890625 C 69.46875 42.730469 69.695312 42.652344 69.910156 42.890625 C 70.070312 43.070312 70.011719 43.300781 69.738281 43.527344 C 69.390625 43.8125 69.027344 44.085938 68.667969 44.359375 C 66.417969 46.0625 64.164062 47.761719 61.910156 49.460938 C 61.71875 49.589844 61.515625 49.707031 61.308594 49.808594 Z M 61.308594 49.808594 " fill-opacity="1" fill-rule="nonzero"/><path fill="#000000" d="M 8.484375 70.316406 C 8.089844 70.316406 7.863281 70.152344 7.832031 69.882812 C 7.796875 69.617188 7.992188 69.359375 8.359375 69.332031 C 9.324219 69.257812 10.285156 69.191406 11.25 69.148438 C 11.796875 69.125 12.039062 69.253906 12.074219 69.515625 C 12.105469 69.773438 11.90625 69.960938 11.359375 70.023438 C 10.382812 70.144531 9.398438 70.226562 8.484375 70.316406 Z M 8.484375 70.316406 " fill-opacity="1" fill-rule="nonzero"/><path fill="#000000" d="M 65.992188 69.136719 C 66.851562 69.203125 67.710938 69.257812 68.570312 69.335938 C 68.910156 69.367188 69.082031 69.566406 69.070312 69.847656 C 69.066406 69.992188 69.011719 70.113281 68.902344 70.203125 C 68.792969 70.296875 68.667969 70.335938 68.527344 70.3125 C 67.480469 70.226562 66.441406 70.117188 65.398438 70.007812 C 65.339844 70.003906 65.277344 69.992188 65.21875 69.972656 C 65.023438 69.90625 64.824219 69.800781 64.839844 69.550781 C 64.855469 69.296875 65.039062 69.191406 65.253906 69.167969 C 65.5 69.15625 65.746094 69.15625 65.992188 69.167969 Z M 65.992188 69.136719 " fill-opacity="1" fill-rule="nonzero"/><path fill="#000000" d="M 68.023438 54.578125 C 67.957031 54.65625 67.871094 54.851562 67.726562 54.914062 C 66.710938 55.351562 65.683594 55.765625 64.652344 56.175781 C 64.554688 56.226562 64.457031 56.238281 64.351562 56.207031 C 64.246094 56.175781 64.167969 56.113281 64.113281 56.015625 C 63.980469 55.753906 64.128906 55.570312 64.347656 55.460938 C 65.132812 55.074219 65.941406 54.703125 66.742188 54.328125 C 66.960938 54.214844 67.1875 54.121094 67.421875 54.042969 C 67.738281 53.957031 68.023438 54.175781 68.023438 54.578125 Z M 68.023438 54.578125 " fill-opacity="1" fill-rule="nonzero"/><path fill="#000000" d="M 12.4375 56.230469 C 12.214844 56.160156 12.074219 56.125 11.941406 56.070312 C 11.085938 55.71875 10.234375 55.367188 9.382812 55.011719 C 9.265625 54.96875 9.160156 54.910156 9.058594 54.839844 C 8.96875 54.777344 8.914062 54.691406 8.890625 54.585938 C 8.867188 54.476562 8.882812 54.378906 8.933594 54.28125 C 8.980469 54.183594 9.050781 54.113281 9.144531 54.066406 C 9.238281 54.023438 9.339844 54.011719 9.441406 54.039062 C 9.542969 54.058594 9.636719 54.09375 9.730469 54.140625 L 12.253906 55.292969 C 12.390625 55.339844 12.511719 55.410156 12.621094 55.507812 C 12.742188 55.640625 12.800781 55.796875 12.792969 55.976562 C 12.757812 56.097656 12.535156 56.167969 12.4375 56.230469 Z M 12.4375 56.230469 " fill-opacity="1" fill-rule="nonzero"/><path fill="#000000" d="M 39.257812 80.582031 C 39.164062 80.648438 39.082031 80.75 38.976562 80.773438 C 38.640625 80.867188 38.300781 80.921875 37.949219 80.9375 C 36.984375 80.9375 36.027344 80.886719 35.066406 80.777344 C 34.539062 80.707031 34.03125 80.429688 33.523438 80.21875 C 33.34375 80.140625 33.148438 80.019531 33.261719 79.714844 C 33.785156 79.558594 34.234375 79.914062 34.726562 79.980469 C 35.21875 80.046875 35.734375 80.144531 36.242188 80.207031 C 36.75 80.265625 37.226562 80.289062 37.714844 80.324219 C 38.199219 80.355469 38.722656 80.382812 39.226562 80.410156 Z M 39.257812 80.582031 " fill-opacity="1" fill-rule="nonzero"/><path fill="#000000" d="M 40.785156 80.183594 C 40.640625 80.652344 40.402344 80.816406 40.113281 80.707031 C 40 80.664062 39.929688 80.578125 39.898438 80.460938 C 39.910156 80.339844 39.96875 80.25 40.078125 80.195312 C 40.3125 80.171875 40.550781 80.167969 40.785156 80.183594 Z M 40.785156 80.183594 " fill-opacity="1" fill-rule="nonzero"/><g clip-path="url(#aede7da82c)"><g transform="matrix(1, 0, 0, 1, 75, 50)"><g clip-path="url(#0354faf92c)"><g clip-path="url(#9c29eb7ff8)"><path fill="#ffffff" d="M 0.734375 0.261719 L 110.371094 0.261719 L 110.371094 22.644531 L 0.734375 22.644531 Z M 0.734375 0.261719 " fill-opacity="1" fill-rule="nonzero"/></g></g></g></g><g clip-path="url(#48ac901281)"><path stroke-linecap="butt" transform="matrix(0.746681, 0, 0, 0.746681, 75.733775, 50.262721)" fill="none" stroke-linejoin="miter" d="M 0.0112664 -0.0013422 L 146.864203 -0.0013422 L 146.864203 29.969819 L 0.0112664 29.969819 Z M 0.0112664 -0.0013422 " stroke="#000000" stroke-width="2" stroke-opacity="1" stroke-miterlimit="4"/></g><g clip-path="url(#120b5e01ce)"><g transform="matrix(1, 0, 0, 1, 77, 52)"><g clip-path="url(#bc9f5bb575)"><g clip-path="url(#4939f732ff)"><path fill="#000000" d="M 0.5625 0.386719 L 48.375 0.386719 L 48.375 18.519531 L 0.5625 18.519531 Z M 0.5625 0.386719 " fill-opacity="1" fill-rule="nonzero"/></g></g></g></g><g transform="matrix(1, 0, 0, 1, 78, 52)"><g clip-path="url(#38b443d6dc)"><g fill="#ffffff" fill-opacity="1"><g transform="translate(0.930399, 14.005044)"><g><path d="M 6.140625 -6.203125 L 4.109375 -6.203125 L 4.109375 0 L 2.40625 0 L 2.40625 -6.203125 L 0.390625 -6.203125 L 0.390625 -7.703125 L 6.140625 -7.703125 Z M 6.140625 -6.203125 "/></g></g></g><g fill="#ffffff" fill-opacity="1"><g transform="translate(7.46009, 14.005044)"><g><path d="M 4.953125 -1.78125 L 2.484375 -1.78125 L 1.9375 0 L 0.203125 0 L 2.9375 -7.703125 L 4.53125 -7.703125 L 7.25 0 L 5.515625 0 Z M 4.53125 -3.09375 L 3.734375 -5.578125 L 3.671875 -5.578125 L 2.90625 -3.09375 Z M 4.53125 -3.09375 "/></g></g></g><g fill="#ffffff" fill-opacity="1"><g transform="translate(14.858209, 14.005044)"><g><path d="M 4.953125 -1.78125 L 2.484375 -1.78125 L 1.9375 0 L 0.203125 0 L 2.9375 -7.703125 L 4.53125 -7.703125 L 7.25 0 L 5.515625 0 Z M 4.53125 -3.09375 L 3.734375 -5.578125 L 3.671875 -5.578125 L 2.90625 -3.09375 Z M 4.53125 -3.09375 "/></g></g></g><g fill="#ffffff" fill-opacity="1"><g transform="translate(22.256328, 14.005044)"><g><path d="M 0.109375 -7.703125 L 1.828125 -7.703125 L 3.03125 -2.265625 L 3.109375 -2.265625 L 4.734375 -7.703125 L 6.21875 -7.703125 L 7.859375 -2.265625 L 7.921875 -2.265625 L 9.140625 -7.703125 L 10.859375 -7.703125 L 8.90625 0.015625 L 6.875 0.015625 L 5.515625 -4.609375 L 5.4375 -4.609375 L 4.078125 0.015625 L 2.0625 0.015625 Z M 0.109375 -7.703125 "/></g></g></g><g clip-path="url(#470f697723)"><g fill="#ffffff" fill-opacity="1"><g transform="translate(33.216096, 14.005044)"><g><path d="M 4.953125 -1.78125 L 2.484375 -1.78125 L 1.9375 0 L 0.203125 0 L 2.9375 -7.703125 L 4.53125 -7.703125 L 7.25 0 L 5.515625 0 Z M 4.53125 -3.09375 L 3.734375 -5.578125 L 3.671875 -5.578125 L 2.90625 -3.09375 Z M 4.53125 -3.09375 "/></g></g></g></g></g></g><g fill="#000000" fill-opacity="1"><g transform="translate(127.8994, 65.898339)"><g><path d="M 2.265625 0.078125 C 1.671875 0.078125 1.191406 -0.109375 0.828125 -0.484375 C 0.472656 -0.859375 0.296875 -1.375 0.296875 -2.03125 L 0.296875 -5.796875 C 0.296875 -6.617188 0.457031 -7.234375 0.78125 -7.640625 C 1.101562 -8.054688 1.613281 -8.265625 2.3125 -8.265625 C 2.914062 -8.265625 3.398438 -8.097656 3.765625 -7.765625 C 4.128906 -7.429688 4.3125 -6.957031 4.3125 -6.34375 L 4.3125 -4.921875 L 2.6875 -4.921875 L 2.6875 -6.140625 C 2.6875 -6.367188 2.65625 -6.523438 2.59375 -6.609375 C 2.539062 -6.703125 2.445312 -6.75 2.3125 -6.75 C 2.164062 -6.75 2.0625 -6.695312 2 -6.59375 C 1.945312 -6.5 1.921875 -6.351562 1.921875 -6.15625 L 1.921875 -2.046875 C 1.921875 -1.828125 1.953125 -1.671875 2.015625 -1.578125 C 2.078125 -1.484375 2.175781 -1.4375 2.3125 -1.4375 C 2.5625 -1.4375 2.6875 -1.640625 2.6875 -2.046875 L 2.6875 -3.53125 L 4.34375 -3.53125 L 4.34375 -1.984375 C 4.34375 -0.609375 3.648438 0.078125 2.265625 0.078125 Z M 2.265625 0.078125 "/></g></g></g><g fill="#000000" fill-opacity="1"><g transform="translate(133.142451, 65.898339)"><g><path d="M 2.3125 0.078125 C 1.65625 0.078125 1.15625 -0.125 0.8125 -0.53125 C 0.46875 -0.9375 0.296875 -1.503906 0.296875 -2.234375 L 0.296875 -6.125 C 0.296875 -6.832031 0.46875 -7.363281 0.8125 -7.71875 C 1.15625 -8.082031 1.65625 -8.265625 2.3125 -8.265625 C 2.976562 -8.265625 3.484375 -8.082031 3.828125 -7.71875 C 4.171875 -7.363281 4.34375 -6.832031 4.34375 -6.125 L 4.34375 -2.234375 C 4.34375 -1.492188 4.171875 -0.921875 3.828125 -0.515625 C 3.484375 -0.117188 2.976562 0.078125 2.3125 0.078125 Z M 2.3125 -1.4375 C 2.457031 -1.4375 2.554688 -1.5 2.609375 -1.625 C 2.660156 -1.75 2.6875 -1.925781 2.6875 -2.15625 L 2.6875 -6.15625 C 2.6875 -6.332031 2.660156 -6.472656 2.609375 -6.578125 C 2.566406 -6.691406 2.472656 -6.75 2.328125 -6.75 C 2.054688 -6.75 1.921875 -6.546875 1.921875 -6.140625 L 1.921875 -2.140625 C 1.921875 -1.910156 1.945312 -1.734375 2 -1.609375 C 2.0625 -1.492188 2.164062 -1.4375 2.3125 -1.4375 Z M 2.3125 -1.4375 "/></g></g></g><g fill="#000000" fill-opacity="1"><g transform="translate(138.49988, 65.898339)"><g><path d="M 2.265625 0.078125 C 1.585938 0.078125 1.082031 -0.109375 0.75 -0.484375 C 0.425781 -0.867188 0.265625 -1.4375 0.265625 -2.1875 L 0.265625 -8.1875 L 1.859375 -8.1875 L 1.859375 -2.265625 C 1.859375 -2.003906 1.882812 -1.800781 1.9375 -1.65625 C 1.988281 -1.507812 2.097656 -1.4375 2.265625 -1.4375 C 2.421875 -1.4375 2.523438 -1.503906 2.578125 -1.640625 C 2.628906 -1.785156 2.65625 -1.992188 2.65625 -2.265625 L 2.65625 -8.1875 L 4.25 -8.1875 L 4.25 -2.1875 C 4.25 -1.4375 4.082031 -0.867188 3.75 -0.484375 C 3.425781 -0.109375 2.929688 0.078125 2.265625 0.078125 Z M 2.265625 0.078125 "/></g></g></g><g fill="#000000" fill-opacity="1"><g transform="translate(143.742931, 65.898339)"><g><path d="M 0.359375 0 L 0.359375 -8.1875 L 2.046875 -8.1875 L 2.796875 -4.265625 L 2.796875 -8.1875 L 4.390625 -8.1875 L 4.390625 0 L 2.78125 0 L 1.96875 -4.09375 L 1.96875 0 Z M 0.359375 0 "/></g></g></g><g fill="#000000" fill-opacity="1"><g transform="translate(149.21474, 65.898339)"><g><path d="M 2.3125 0.078125 C 1.5625 0.078125 1.019531 -0.101562 0.6875 -0.46875 C 0.363281 -0.84375 0.203125 -1.441406 0.203125 -2.265625 L 0.203125 -3.0625 L 1.8125 -3.0625 L 1.8125 -2.046875 C 1.8125 -1.640625 1.941406 -1.4375 2.203125 -1.4375 C 2.347656 -1.4375 2.445312 -1.476562 2.5 -1.5625 C 2.5625 -1.644531 2.59375 -1.785156 2.59375 -1.984375 C 2.59375 -2.253906 2.5625 -2.476562 2.5 -2.65625 C 2.4375 -2.832031 2.351562 -2.976562 2.25 -3.09375 C 2.15625 -3.207031 1.976562 -3.390625 1.71875 -3.640625 L 1.015625 -4.34375 C 0.472656 -4.875 0.203125 -5.46875 0.203125 -6.125 C 0.203125 -6.820312 0.359375 -7.351562 0.671875 -7.71875 C 0.992188 -8.082031 1.46875 -8.265625 2.09375 -8.265625 C 2.820312 -8.265625 3.347656 -8.066406 3.671875 -7.671875 C 4.003906 -7.285156 4.171875 -6.675781 4.171875 -5.84375 L 2.5 -5.84375 L 2.484375 -6.40625 C 2.484375 -6.507812 2.453125 -6.59375 2.390625 -6.65625 C 2.335938 -6.71875 2.253906 -6.75 2.140625 -6.75 C 2.015625 -6.75 1.921875 -6.710938 1.859375 -6.640625 C 1.796875 -6.578125 1.765625 -6.484375 1.765625 -6.359375 C 1.765625 -6.097656 1.914062 -5.820312 2.21875 -5.53125 L 3.171875 -4.625 C 3.390625 -4.40625 3.570312 -4.195312 3.71875 -4 C 3.875 -3.8125 3.992188 -3.582031 4.078125 -3.3125 C 4.171875 -3.050781 4.21875 -2.742188 4.21875 -2.390625 C 4.21875 -1.578125 4.066406 -0.960938 3.765625 -0.546875 C 3.472656 -0.128906 2.988281 0.078125 2.3125 0.078125 Z M 2.3125 0.078125 "/></g></g></g><g fill="#000000" fill-opacity="1"><g transform="translate(154.333875, 65.898339)"><g><path d="M 0.359375 0 L 0.359375 -8.1875 L 3.640625 -8.1875 L 3.640625 -6.609375 L 2.03125 -6.609375 L 2.03125 -5.015625 L 3.578125 -5.015625 L 3.578125 -3.46875 L 2.03125 -3.46875 L 2.03125 -1.59375 L 3.75 -1.59375 L 3.75 0 Z M 0.359375 0 "/></g></g></g><g fill="#000000" fill-opacity="1"><g transform="translate(158.985947, 65.898339)"><g><path d="M 0.359375 0 L 0.359375 -8.1875 L 2 -8.1875 L 2 -1.390625 L 3.6875 -1.390625 L 3.6875 0 Z M 0.359375 0 "/></g></g></g><g fill="#000000" fill-opacity="1"><g transform="translate(163.495043, 65.898339)"><g><path d="M 0.359375 0 L 0.359375 -8.1875 L 2 -8.1875 L 2 -1.390625 L 3.6875 -1.390625 L 3.6875 0 Z M 0.359375 0 "/></g></g></g><g fill="#000000" fill-opacity="1"><g transform="translate(168.004139, 65.898339)"><g><path d="M 0.28125 0 L 0.28125 -8.1875 L 1.875 -8.1875 L 1.875 0 Z M 0.28125 0 "/></g></g></g><g fill="#000000" fill-opacity="1"><g transform="translate(170.892813, 65.898339)"><g><path d="M 0.359375 0 L 0.359375 -8.1875 L 2.046875 -8.1875 L 2.796875 -4.265625 L 2.796875 -8.1875 L 4.390625 -8.1875 L 4.390625 0 L 2.78125 0 L 1.96875 -4.09375 L 1.96875 0 Z M 0.359375 0 "/></g></g></g><g fill="#000000" fill-opacity="1"><g transform="translate(176.364621, 65.898339)"><g><path d="M 2.046875 0.078125 C 1.453125 0.078125 1.007812 -0.128906 0.71875 -0.546875 C 0.4375 -0.960938 0.296875 -1.59375 0.296875 -2.4375 L 0.296875 -5.96875 C 0.296875 -6.71875 0.460938 -7.285156 0.796875 -7.671875 C 1.140625 -8.066406 1.644531 -8.265625 2.3125 -8.265625 C 2.84375 -8.265625 3.257812 -8.15625 3.5625 -7.9375 C 3.863281 -7.71875 4.070312 -7.398438 4.1875 -6.984375 C 4.300781 -6.578125 4.359375 -6.050781 4.359375 -5.40625 L 2.75 -5.40625 L 2.75 -6.140625 C 2.75 -6.335938 2.722656 -6.488281 2.671875 -6.59375 C 2.617188 -6.695312 2.523438 -6.75 2.390625 -6.75 C 2.078125 -6.75 1.921875 -6.546875 1.921875 -6.140625 L 1.921875 -2.1875 C 1.921875 -1.9375 1.953125 -1.75 2.015625 -1.625 C 2.078125 -1.5 2.1875 -1.4375 2.34375 -1.4375 C 2.5 -1.4375 2.609375 -1.5 2.671875 -1.625 C 2.742188 -1.75 2.78125 -1.9375 2.78125 -2.1875 L 2.78125 -3.359375 L 2.328125 -3.359375 L 2.328125 -4.765625 L 4.34375 -4.765625 L 4.34375 0 L 3.671875 0 L 3.40625 -0.6875 C 3.113281 -0.175781 2.660156 0.078125 2.046875 0.078125 Z M 2.046875 0.078125 "/></g></g></g><g transform="matrix(1, 0, 0, 1, 86, 50)"><g clip-path="url(#43a40b2a3a)"><g fill="#ffffff" fill-opacity="1"><g transform="translate(0.424282, 9.906175)"><g><path d="M 0.875 -2.484375 C 0.875 -2.796875 0.945312 -3.054688 1.09375 -3.265625 C 1.25 -3.484375 1.503906 -3.59375 1.859375 -3.59375 C 1.984375 -3.59375 2.097656 -3.578125 2.203125 -3.546875 C 2.316406 -3.515625 2.453125 -3.46875 2.609375 -3.40625 C 2.691406 -3.375 2.773438 -3.34375 2.859375 -3.3125 C 2.941406 -3.289062 3.015625 -3.28125 3.078125 -3.28125 C 3.203125 -3.28125 3.285156 -3.3125 3.328125 -3.375 C 3.378906 -3.4375 3.40625 -3.507812 3.40625 -3.59375 L 4.078125 -3.59375 C 4.066406 -3.28125 3.988281 -3.019531 3.84375 -2.8125 C 3.695312 -2.601562 3.445312 -2.5 3.09375 -2.5 C 2.957031 -2.5 2.832031 -2.515625 2.71875 -2.546875 C 2.613281 -2.578125 2.488281 -2.617188 2.34375 -2.671875 C 2.144531 -2.753906 1.984375 -2.796875 1.859375 -2.796875 C 1.734375 -2.796875 1.644531 -2.765625 1.59375 -2.703125 C 1.550781 -2.640625 1.53125 -2.566406 1.53125 -2.484375 Z M 0.875 -2.484375 "/></g></g></g></g></g></svg>