<svg xmlns="http://www.w3.org/2000/svg" xmlns:xlink="http://www.w3.org/1999/xlink" width="150" zoomAndPan="magnify" viewBox="0 0 112.5 37.5" height="50" preserveAspectRatio="xMidYMid meet" version="1.0"><defs><g/><clipPath id="595fbba68c"><path d="M 0.492188 3 L 111.511719 3 L 111.511719 34 L 0.492188 34 Z M 0.492188 3 " clip-rule="nonzero"/></clipPath><clipPath id="e8ab6a20a1"><path d="M 0.703125 4.195312 L 111.511719 4.195312 L 111.511719 26.808594 L 0.703125 26.808594 Z M 0.703125 4.195312 " clip-rule="nonzero"/></clipPath><clipPath id="965b38eb11"><path d="M 0.703125 0.195312 L 111.511719 0.195312 L 111.511719 22.808594 L 0.703125 22.808594 Z M 0.703125 0.195312 " clip-rule="nonzero"/></clipPath><clipPath id="406b488e75"><rect x="0" width="112" y="0" height="23"/></clipPath><clipPath id="07c58686d8"><path d="M 0.710938 4.195312 L 111.496094 4.195312 L 111.496094 26.804688 L 0.710938 26.804688 Z M 0.710938 4.195312 " clip-rule="nonzero"/></clipPath><clipPath id="b5bf245a2d"><path d="M 2.550781 6.34375 L 50.871094 6.34375 L 50.871094 24.664062 L 2.550781 24.664062 Z M 2.550781 6.34375 " clip-rule="nonzero"/></clipPath><clipPath id="eeb40f30c6"><path d="M 0.550781 0.34375 L 48.871094 0.34375 L 48.871094 18.664062 L 0.550781 18.664062 Z M 0.550781 0.34375 " clip-rule="nonzero"/></clipPath><clipPath id="3470429c0a"><rect x="0" width="49" y="0" height="19"/></clipPath><clipPath id="570f33979a"><rect x="0" width="42" y="0" height="18"/></clipPath><clipPath id="764fc6365e"><rect x="0" width="6" y="0" height="13"/></clipPath><clipPath id="c0b1635222"><rect x="0" width="112" y="0" height="31"/></clipPath></defs><g clip-path="url(#595fbba68c)"><g transform="matrix(1, 0, 0, 1, 0.000000000000000056, 3)"><g clip-path="url(#c0b1635222)"><g clip-path="url(#e8ab6a20a1)"><g transform="matrix(1, 0, 0, 1, 0.000000000000000056, 4)"><g clip-path="url(#406b488e75)"><g clip-path="url(#965b38eb11)"><path fill="#ffffff" d="M 0.703125 0.195312 L 111.46875 0.195312 L 111.46875 22.808594 L 0.703125 22.808594 Z M 0.703125 0.195312 " fill-opacity="1" fill-rule="nonzero"/></g></g></g></g><g clip-path="url(#07c58686d8)"><path stroke-linecap="butt" transform="matrix(0.754383, 0, 0, 0.754383, 0.70415, 4.196983)" fill="none" stroke-linejoin="miter" d="M 0.00899756 -0.00221375 L 146.864363 -0.00221375 L 146.864363 29.96848 L 0.00899756 29.96848 Z M 0.00899756 -0.00221375 " stroke="#000000" stroke-width="1.962218" stroke-opacity="1" stroke-miterlimit="4"/></g><g clip-path="url(#b5bf245a2d)"><g transform="matrix(1, 0, 0, 1, 2, 6)"><g clip-path="url(#3470429c0a)"><g clip-path="url(#eeb40f30c6)"><path fill="#000000" d="M 0.550781 0.34375 L 48.855469 0.34375 L 48.855469 18.664062 L 0.550781 18.664062 Z M 0.550781 0.34375 " fill-opacity="1" fill-rule="nonzero"/></g></g></g></g><g transform="matrix(1, 0, 0, 1, 3, 6)"><g clip-path="url(#570f33979a)"><g fill="#ffffff" fill-opacity="1"><g transform="translate(0.933748, 14.101673)"><g><path d="M 6.203125 -6.265625 L 4.15625 -6.265625 L 4.15625 0 L 2.4375 0 L 2.4375 -6.265625 L 0.390625 -6.265625 L 0.390625 -7.78125 L 6.203125 -7.78125 Z M 6.203125 -6.265625 "/></g></g></g><g fill="#ffffff" fill-opacity="1"><g transform="translate(7.530787, 14.101673)"><g><path d="M 5 -1.796875 L 2.515625 -1.796875 L 1.953125 0 L 0.203125 0 L 2.96875 -7.78125 L 4.578125 -7.78125 L 7.328125 0 L 5.5625 0 Z M 4.578125 -3.125 L 3.78125 -5.625 L 3.703125 -5.625 L 2.9375 -3.125 Z M 4.578125 -3.125 "/></g></g></g><g fill="#ffffff" fill-opacity="1"><g transform="translate(15.005211, 14.101673)"><g><path d="M 5 -1.796875 L 2.515625 -1.796875 L 1.953125 0 L 0.203125 0 L 2.96875 -7.78125 L 4.578125 -7.78125 L 7.328125 0 L 5.5625 0 Z M 4.578125 -3.125 L 3.78125 -5.625 L 3.703125 -5.625 L 2.9375 -3.125 Z M 4.578125 -3.125 "/></g></g></g><g fill="#ffffff" fill-opacity="1"><g transform="translate(22.479635, 14.101673)"><g><path d="M 0.109375 -7.78125 L 1.84375 -7.78125 L 3.0625 -2.28125 L 3.140625 -2.28125 L 4.78125 -7.78125 L 6.28125 -7.78125 L 7.9375 -2.28125 L 8 -2.28125 L 9.234375 -7.78125 L 10.96875 -7.78125 L 8.984375 0.015625 L 6.9375 0.015625 L 5.5625 -4.65625 L 5.5 -4.65625 L 4.125 0.015625 L 2.078125 0.015625 Z M 0.109375 -7.78125 "/></g></g></g><g fill="#ffffff" fill-opacity="1"><g transform="translate(33.552443, 14.101673)"><g><path d="M 5 -1.796875 L 2.515625 -1.796875 L 1.953125 0 L 0.203125 0 L 2.96875 -7.78125 L 4.578125 -7.78125 L 7.328125 0 L 5.5625 0 Z M 4.578125 -3.125 L 3.78125 -5.625 L 3.703125 -5.625 L 2.9375 -3.125 Z M 4.578125 -3.125 "/></g></g></g></g></g><g fill="#000000" fill-opacity="1"><g transform="translate(53.407812, 19.99387)"><g><path d="M 2.296875 0.078125 C 1.691406 0.078125 1.207031 -0.109375 0.84375 -0.484375 C 0.476562 -0.867188 0.296875 -1.390625 0.296875 -2.046875 L 0.296875 -5.875 C 0.296875 -6.695312 0.457031 -7.316406 0.78125 -7.734375 C 1.113281 -8.148438 1.628906 -8.359375 2.328125 -8.359375 C 2.941406 -8.359375 3.4375 -8.191406 3.8125 -7.859375 C 4.1875 -7.523438 4.375 -7.039062 4.375 -6.40625 L 4.375 -4.984375 L 2.71875 -4.984375 L 2.71875 -6.203125 C 2.71875 -6.441406 2.6875 -6.601562 2.625 -6.6875 C 2.570312 -6.78125 2.472656 -6.828125 2.328125 -6.828125 C 2.179688 -6.828125 2.082031 -6.773438 2.03125 -6.671875 C 1.976562 -6.578125 1.953125 -6.429688 1.953125 -6.234375 L 1.953125 -2.078125 C 1.953125 -1.859375 1.984375 -1.695312 2.046875 -1.59375 C 2.109375 -1.5 2.203125 -1.453125 2.328125 -1.453125 C 2.585938 -1.453125 2.71875 -1.660156 2.71875 -2.078125 L 2.71875 -3.5625 L 4.390625 -3.5625 L 4.390625 -2 C 4.390625 -0.613281 3.691406 0.078125 2.296875 0.078125 Z M 2.296875 0.078125 "/></g></g></g><g fill="#000000" fill-opacity="1"><g transform="translate(58.704941, 19.99387)"><g><path d="M 2.34375 0.078125 C 1.675781 0.078125 1.164062 -0.125 0.8125 -0.53125 C 0.46875 -0.9375 0.296875 -1.507812 0.296875 -2.25 L 0.296875 -6.203125 C 0.296875 -6.910156 0.46875 -7.445312 0.8125 -7.8125 C 1.164062 -8.175781 1.675781 -8.359375 2.34375 -8.359375 C 3.007812 -8.359375 3.515625 -8.175781 3.859375 -7.8125 C 4.210938 -7.445312 4.390625 -6.910156 4.390625 -6.203125 L 4.390625 -2.25 C 4.390625 -1.507812 4.210938 -0.9375 3.859375 -0.53125 C 3.515625 -0.125 3.007812 0.078125 2.34375 0.078125 Z M 2.34375 -1.453125 C 2.488281 -1.453125 2.585938 -1.515625 2.640625 -1.640625 C 2.691406 -1.765625 2.71875 -1.941406 2.71875 -2.171875 L 2.71875 -6.234375 C 2.71875 -6.410156 2.691406 -6.550781 2.640625 -6.65625 C 2.597656 -6.769531 2.503906 -6.828125 2.359375 -6.828125 C 2.078125 -6.828125 1.9375 -6.617188 1.9375 -6.203125 L 1.9375 -2.171875 C 1.9375 -1.929688 1.960938 -1.75 2.015625 -1.625 C 2.078125 -1.507812 2.1875 -1.453125 2.34375 -1.453125 Z M 2.34375 -1.453125 "/></g></g></g><g fill="#000000" fill-opacity="1"><g transform="translate(64.117627, 19.99387)"><g><path d="M 2.28125 0.078125 C 1.601562 0.078125 1.097656 -0.113281 0.765625 -0.5 C 0.429688 -0.882812 0.265625 -1.457031 0.265625 -2.21875 L 0.265625 -8.28125 L 1.875 -8.28125 L 1.875 -2.28125 C 1.875 -2.019531 1.898438 -1.816406 1.953125 -1.671875 C 2.003906 -1.523438 2.113281 -1.453125 2.28125 -1.453125 C 2.445312 -1.453125 2.554688 -1.519531 2.609375 -1.65625 C 2.660156 -1.800781 2.6875 -2.007812 2.6875 -2.28125 L 2.6875 -8.28125 L 4.296875 -8.28125 L 4.296875 -2.21875 C 4.296875 -1.457031 4.128906 -0.882812 3.796875 -0.5 C 3.472656 -0.113281 2.96875 0.078125 2.28125 0.078125 Z M 2.28125 0.078125 "/></g></g></g><g fill="#000000" fill-opacity="1"><g transform="translate(69.414756, 19.99387)"><g><path d="M 0.359375 0 L 0.359375 -8.28125 L 2.078125 -8.28125 L 2.828125 -4.3125 L 2.828125 -8.28125 L 4.4375 -8.28125 L 4.4375 0 L 2.8125 0 L 1.984375 -4.140625 L 1.984375 0 Z M 0.359375 0 "/></g></g></g><g fill="#000000" fill-opacity="1"><g transform="translate(74.943001, 19.99387)"><g><path d="M 2.328125 0.078125 C 1.578125 0.078125 1.035156 -0.109375 0.703125 -0.484375 C 0.367188 -0.859375 0.203125 -1.457031 0.203125 -2.28125 L 0.203125 -3.09375 L 1.828125 -3.09375 L 1.828125 -2.0625 C 1.828125 -1.65625 1.960938 -1.453125 2.234375 -1.453125 C 2.378906 -1.453125 2.476562 -1.492188 2.53125 -1.578125 C 2.59375 -1.660156 2.625 -1.804688 2.625 -2.015625 C 2.625 -2.285156 2.585938 -2.507812 2.515625 -2.6875 C 2.453125 -2.863281 2.367188 -3.007812 2.265625 -3.125 C 2.171875 -3.25 2 -3.4375 1.75 -3.6875 L 1.03125 -4.390625 C 0.476562 -4.929688 0.203125 -5.53125 0.203125 -6.1875 C 0.203125 -6.894531 0.363281 -7.429688 0.6875 -7.796875 C 1.007812 -8.171875 1.484375 -8.359375 2.109375 -8.359375 C 2.859375 -8.359375 3.394531 -8.160156 3.71875 -7.765625 C 4.050781 -7.367188 4.21875 -6.75 4.21875 -5.90625 L 2.53125 -5.90625 L 2.515625 -6.484375 C 2.515625 -6.585938 2.484375 -6.671875 2.421875 -6.734375 C 2.359375 -6.796875 2.273438 -6.828125 2.171875 -6.828125 C 2.035156 -6.828125 1.9375 -6.789062 1.875 -6.71875 C 1.8125 -6.65625 1.78125 -6.5625 1.78125 -6.4375 C 1.78125 -6.164062 1.9375 -5.882812 2.25 -5.59375 L 3.203125 -4.671875 C 3.429688 -4.453125 3.617188 -4.242188 3.765625 -4.046875 C 3.910156 -3.859375 4.03125 -3.628906 4.125 -3.359375 C 4.21875 -3.085938 4.265625 -2.769531 4.265625 -2.40625 C 4.265625 -1.59375 4.113281 -0.972656 3.8125 -0.546875 C 3.507812 -0.128906 3.015625 0.078125 2.328125 0.078125 Z M 2.328125 0.078125 "/></g></g></g><g fill="#000000" fill-opacity="1"><g transform="translate(80.114936, 19.99387)"><g><path d="M 0.359375 0 L 0.359375 -8.28125 L 3.6875 -8.28125 L 3.6875 -6.6875 L 2.046875 -6.6875 L 2.046875 -5.078125 L 3.609375 -5.078125 L 3.609375 -3.515625 L 2.046875 -3.515625 L 2.046875 -1.609375 L 3.78125 -1.609375 L 3.78125 0 Z M 0.359375 0 "/></g></g></g><g fill="#000000" fill-opacity="1"><g transform="translate(84.81499, 19.99387)"><g><path d="M 0.359375 0 L 0.359375 -8.28125 L 2.03125 -8.28125 L 2.03125 -1.40625 L 3.734375 -1.40625 L 3.734375 0 Z M 0.359375 0 "/></g></g></g><g fill="#000000" fill-opacity="1"><g transform="translate(89.370593, 19.99387)"><g><path d="M 0.359375 0 L 0.359375 -8.28125 L 2.03125 -8.28125 L 2.03125 -1.40625 L 3.734375 -1.40625 L 3.734375 0 Z M 0.359375 0 "/></g></g></g><g fill="#000000" fill-opacity="1"><g transform="translate(93.926197, 19.99387)"><g><path d="M 0.296875 0 L 0.296875 -8.28125 L 1.890625 -8.28125 L 1.890625 0 Z M 0.296875 0 "/></g></g></g><g fill="#000000" fill-opacity="1"><g transform="translate(96.844664, 19.99387)"><g><path d="M 0.359375 0 L 0.359375 -8.28125 L 2.078125 -8.28125 L 2.828125 -4.3125 L 2.828125 -8.28125 L 4.4375 -8.28125 L 4.4375 0 L 2.8125 0 L 1.984375 -4.140625 L 1.984375 0 Z M 0.359375 0 "/></g></g></g><g fill="#000000" fill-opacity="1"><g transform="translate(102.37291, 19.99387)"><g><path d="M 2.078125 0.078125 C 1.472656 0.078125 1.023438 -0.128906 0.734375 -0.546875 C 0.441406 -0.972656 0.296875 -1.613281 0.296875 -2.46875 L 0.296875 -6.03125 C 0.296875 -6.800781 0.46875 -7.378906 0.8125 -7.765625 C 1.15625 -8.160156 1.660156 -8.359375 2.328125 -8.359375 C 2.878906 -8.359375 3.304688 -8.25 3.609375 -8.03125 C 3.910156 -7.8125 4.117188 -7.492188 4.234375 -7.078125 C 4.347656 -6.660156 4.40625 -6.125 4.40625 -5.46875 L 2.78125 -5.46875 L 2.78125 -6.203125 C 2.78125 -6.398438 2.753906 -6.550781 2.703125 -6.65625 C 2.648438 -6.769531 2.550781 -6.828125 2.40625 -6.828125 C 2.09375 -6.828125 1.9375 -6.625 1.9375 -6.21875 L 1.9375 -2.203125 C 1.9375 -1.953125 1.96875 -1.765625 2.03125 -1.640625 C 2.09375 -1.515625 2.207031 -1.453125 2.375 -1.453125 C 2.53125 -1.453125 2.640625 -1.515625 2.703125 -1.640625 C 2.773438 -1.765625 2.8125 -1.953125 2.8125 -2.203125 L 2.8125 -3.390625 L 2.359375 -3.390625 L 2.359375 -4.828125 L 4.390625 -4.828125 L 4.390625 0 L 3.71875 0 L 3.4375 -0.6875 C 3.144531 -0.175781 2.691406 0.078125 2.078125 0.078125 Z M 2.078125 0.078125 "/></g></g></g><g transform="matrix(1, 0, 0, 1, 11, 4)"><g clip-path="url(#764fc6365e)"><g fill="#ffffff" fill-opacity="1"><g transform="translate(0.504923, 9.939902)"><g><path d="M 0.875 -2.515625 C 0.882812 -2.828125 0.960938 -3.085938 1.109375 -3.296875 C 1.265625 -3.515625 1.519531 -3.625 1.875 -3.625 C 2 -3.625 2.113281 -3.609375 2.21875 -3.578125 C 2.332031 -3.546875 2.472656 -3.503906 2.640625 -3.453125 C 2.710938 -3.410156 2.789062 -3.375 2.875 -3.34375 C 2.96875 -3.320312 3.046875 -3.3125 3.109375 -3.3125 C 3.234375 -3.3125 3.320312 -3.34375 3.375 -3.40625 C 3.425781 -3.46875 3.453125 -3.539062 3.453125 -3.625 L 4.109375 -3.625 C 4.109375 -3.3125 4.03125 -3.046875 3.875 -2.828125 C 3.726562 -2.617188 3.476562 -2.515625 3.125 -2.515625 C 2.988281 -2.515625 2.863281 -2.53125 2.75 -2.5625 C 2.644531 -2.59375 2.515625 -2.640625 2.359375 -2.703125 C 2.160156 -2.785156 2 -2.828125 1.875 -2.828125 C 1.75 -2.828125 1.660156 -2.796875 1.609375 -2.734375 C 1.566406 -2.671875 1.546875 -2.597656 1.546875 -2.515625 Z M 0.875 -2.515625 "/></g></g></g></g></g></g></g></g></svg>